HIERARCHY
ROOT Hips
{
	OFFSET 0.000000 0.000000 0.000000
	CHANNELS 6 Xposition Yposition Zposition Xrotation Yrotation Zrotation
	JOINT LeftUpLeg_virtual
	{
		OFFSET 0.000000 0.000000 0.000000
		CHANNELS 3 Xrotation Yrotation Zrotation
		JOINT LeftUpLeg
		{
			OFFSET 11.394100 -6.187798 -0.413800
			CHANNELS 3 Xrotation Yrotation Zrotation
			JOINT LeftLeg
			{
				OFFSET 0.430247 -32.302673 3.732800
				CHANNELS 3 Xrotation Yrotation Zrotation
				JOINT LeftFoot
				{
					OFFSET -0.430247 -48.264931 -6.423300
					CHANNELS 3 Xrotation Yrotation Zrotation
					JOINT LeftToeBase
					{
						OFFSET 4.230900 -16.068199 23.438400
						CHANNELS 3 Xrotation Yrotation Zrotation
						JOINT LeftToe_End
						{
							OFFSET 4.510700 0.695400 19.974600
							CHANNELS 3 Xrotation Yrotation Zrotation
							End Site
							{
								OFFSET 0 0 0
							}
						}
					}
				}
			}
		}
	}
	JOINT RightUpLeg_virtual
	{
		OFFSET 0.000000 0.000000 0.000000
		CHANNELS 3 Xrotation Yrotation Zrotation
		JOINT RightUpLeg
		{
			OFFSET -11.333700 -6.187798 -0.413800
			CHANNELS 3 Xrotation Yrotation Zrotation
			JOINT RightLeg
			{
				OFFSET -0.430392 -32.302628 3.733000
				CHANNELS 3 Xrotation Yrotation Zrotation
				JOINT RightFoot
				{
					OFFSET 0.430392 -48.264973 -6.423500
					CHANNELS 3 Xrotation Yrotation Zrotation
					JOINT RightToeBase
					{
						OFFSET -4.230900 -16.068199 23.438400
						CHANNELS 3 Xrotation Yrotation Zrotation
						JOINT RightToe_End
						{
							OFFSET -4.510700 0.695400 19.974600
							CHANNELS 3 Xrotation Yrotation Zrotation
							End Site
							{
								OFFSET 0 0 0
							}
						}
					}
				}
			}
		}
	}
	JOINT Spine_virtual
	{
		OFFSET 0.000000 0.000000 0.000000
		CHANNELS 3 Xrotation Yrotation Zrotation
		JOINT Spine
		{
			OFFSET -0.002400 12.777504 0.315300
			CHANNELS 3 Xrotation Yrotation Zrotation
			JOINT Spine1
			{
				OFFSET -0.002067 5.816869 0.032633
				CHANNELS 3 Xrotation Yrotation Zrotation
				JOINT Spine1_split
				{
					OFFSET -0.002067 5.816869 0.032633
					CHANNELS 3 Xrotation Yrotation Zrotation
					JOINT Spine2
					{
						OFFSET -0.002067 5.816869 0.032633
						CHANNELS 3 Xrotation Yrotation Zrotation
						JOINT Neck_virtual
						{
							OFFSET 0.000000 0.000000 0.000000
							CHANNELS 3 Xrotation Yrotation Zrotation
							JOINT Neck
							{
								OFFSET -0.003700 21.199493 -0.826900
								CHANNELS 3 Xrotation Yrotation Zrotation
								JOINT Head
								{
									OFFSET 0.000000 20.442200 4.834800
									CHANNELS 3 Xrotation Yrotation Zrotation
									JOINT HeadTop_End
									{
										OFFSET 0.000000 34.668396 4.968400
										CHANNELS 3 Xrotation Yrotation Zrotation
										End Site
										{
											OFFSET 0 0 0
										}
									}
								}
							}
						}
						JOINT LeftShoulder_virtual
						{
							OFFSET 0.000000 0.000000 0.000000
							CHANNELS 3 Xrotation Yrotation Zrotation
							JOINT LeftShoulder
							{
								OFFSET 3.288150 8.794197 -1.372250
								CHANNELS 3 Xrotation Yrotation Zrotation
								JOINT LeftShoulder_split
								{
									OFFSET 3.288150 8.794197 -1.372250
									CHANNELS 3 Xrotation Yrotation Zrotation
									JOINT LeftArm
									{
										OFFSET 11.953299 -2.279007 -0.146200
										CHANNELS 3 Xrotation Yrotation Zrotation
										JOINT LeftForeArm
										{
											OFFSET 18.448900 0.000000 0.000000
											CHANNELS 3 Xrotation Yrotation Zrotation
											JOINT LeftHand
											{
												OFFSET 29.527798 0.000000 0.000000
												CHANNELS 3 Xrotation Yrotation Zrotation
												End Site
												{
													OFFSET 0 0 0
												}
											}
										}
									}
								}
							}
						}
						JOINT RightShoulder_virtual
						{
							OFFSET 0.000000 0.000000 0.000000
							CHANNELS 3 Xrotation Yrotation Zrotation
							JOINT RightShoulder
							{
								OFFSET -3.249400 8.794197 -1.372250
								CHANNELS 3 Xrotation Yrotation Zrotation
								JOINT RightShoulder_split
								{
									OFFSET -3.249400 8.794197 -1.372250
									CHANNELS 3 Xrotation Yrotation Zrotation
									JOINT RightArm
									{
										OFFSET -11.953299 -2.279007 -0.146200
										CHANNELS 3 Xrotation Yrotation Zrotation
										JOINT RightForeArm
										{
											OFFSET -18.448900 0.000000 0.000000
											CHANNELS 3 Xrotation Yrotation Zrotation
											JOINT RightHand
											{
												OFFSET -29.527802 0.000000 0.000000
												CHANNELS 3 Xrotation Yrotation Zrotation
												End Site
												{
													OFFSET 0 0 0
												}
											}
										}
									}
								}
							}
						}
					}
				}
			}
		}
	}
}
MOTION
Frames: 6
Frame Time: 0.03333333
-32.338184 56.052715 274.899841 0.000000 0.000000 0.000000 -172.364304 15.337945 -179.677975 -90.738032 -1.905864 31.727267 97.326828 -4.201059 -3.939162 0.825075 -8.327321 9.560724 -6.001248 0.309902 -1.462821 0.000000 0.000000 0.000000 -172.454313 14.684249 179.573583 -100.499506 11.364795 -20.879214 103.722474 -0.025206 3.927579 -5.509552 4.455695 -6.867252 4.526891 2.844838 2.718803 0.000000 0.000000 0.000000 -172.343431 16.991487 -178.042869 18.449596 -3.239183 -7.416906 3.992079 -0.227065 -2.611544 0.842772 -0.332708 0.438480 0.000000 0.000000 0.000000 4.610035 -0.741487 -1.817536 -1.671192 -0.110686 -1.076408 -20.296385 0.258086 7.780242 0.000000 0.000000 0.000000 3.875967 -0.523010 -2.399317 0.981529 -2.820611 -11.262644 -3.241870 0.028366 1.467837 -15.275008 -40.344910 -44.400358 0.356436 -58.460750 0.861671 0.000000 0.000000 0.000000 4.920616 -0.606373 -1.872230 -2.668333 18.987825 -1.595863 -1.428455 0.800122 0.582718 -25.655459 26.282667 30.571449 -179.997546 69.042605 179.653031 0.000000 0.000000 0.000000 
-32.325058 56.052731 274.874695 0.000000 0.000000 0.000000 -172.404165 15.381226 -179.714722 -90.770250 -1.980200 31.692611 97.401756 -4.218705 -3.942113 0.842531 -8.310430 9.600815 -6.011756 0.311046 -1.497720 0.000000 0.000000 0.000000 -172.501277 14.696940 179.545497 -100.562132 11.285360 -20.923834 103.722495 -0.028368 3.949860 -5.496518 4.418743 -6.886307 4.568306 2.835434 2.720105 0.000000 0.000000 0.000000 -172.391229 17.014283 -178.048538 18.369222 -3.186611 -7.450520 3.964060 -0.213580 -2.616186 0.842441 -0.340995 0.443090 0.000000 0.000000 0.000000 4.581565 -0.712409 -1.846738 -1.651746 -0.245350 -1.009421 -21.050040 0.105784 7.868322 0.000000 0.000000 0.000000 3.893367 -0.512710 -2.410222 0.963915 -2.817352 -11.266091 -3.437789 0.129126 1.395758 -15.226001 -40.462481 -44.342063 0.425611 -58.321592 0.930478 0.000000 0.000000 0.000000 4.908906 -0.583243 -1.895119 -2.989630 18.156666 -2.495447 -1.352736 0.760254 0.593883 -27.317905 26.534677 31.091151 179.738955 68.178921 -179.956169 0.000000 0.000000 0.000000 
-32.314728 56.054123 274.857788 0.000000 0.000000 0.000000 -172.443330 15.440300 -179.765798 -90.807720 -2.053026 31.652995 97.464607 -4.234824 -3.928245 0.868638 -8.288906 9.629065 -6.024471 0.310410 -1.531958 0.000000 0.000000 0.000000 -172.545878 14.731381 179.501688 -100.619123 11.197698 -20.973966 103.729140 -0.034062 3.971349 -5.466993 4.372232 -6.897455 4.602564 2.826998 2.717670 0.000000 0.000000 0.000000 -172.436076 17.060349 -178.076419 18.285557 -3.146391 -7.466542 3.943430 -0.210680 -2.612454 0.842042 -0.359115 0.447903 0.000000 0.000000 0.000000 4.561630 -0.690675 -1.867424 -1.643797 -0.372388 -0.952251 -21.756447 -0.070426 7.948681 0.000000 0.000000 0.000000 3.931690 -0.516777 -2.408737 0.943376 -2.839372 -11.317612 -3.626184 0.191227 1.353605 -15.112253 -40.566928 -44.278962 0.475497 -58.236747 0.958576 0.000000 0.000000 0.000000 4.903465 -0.572436 -1.906701 -3.266476 17.452443 -3.196736 -1.240422 0.706728 0.563277 -28.814823 26.814124 31.419519 179.595699 67.610328 -179.687401 0.000000 0.000000 0.000000 
-32.310844 56.059628 274.847565 0.000000 0.000000 0.000000 -172.483314 15.519298 -179.825535 -90.851420 -2.118301 31.606079 97.506319 -4.250229 -3.899214 0.909584 -8.268661 9.638769 -6.050371 0.306169 -1.557099 0.000000 0.000000 0.000000 -172.588253 14.794610 179.445052 -100.663055 11.106809 -21.027656 103.734359 -0.045039 3.992710 -5.438199 4.317206 -6.911108 4.642352 2.819434 2.716581 0.000000 0.000000 0.000000 -172.476688 17.128769 -178.128082 18.197956 -3.117101 -7.465710 3.931122 -0.216958 -2.600371 0.862971 -0.377623 0.442875 0.000000 0.000000 0.000000 4.550285 -0.677043 -1.877100 -1.640518 -0.491586 -0.909370 -22.419712 -0.265498 8.014336 0.000000 0.000000 0.000000 3.980758 -0.530514 -2.395052 0.921082 -2.885708 -11.399684 -3.831740 0.215086 1.351642 -14.944727 -40.649659 -44.198458 0.478301 -58.183608 0.930014 0.000000 0.000000 0.000000 4.899793 -0.572448 -1.906429 -3.501597 16.850135 -3.742265 -1.108780 0.618124 0.509916 -30.174174 27.128456 31.597183 179.542628 67.173442 -179.523968 0.000000 0.000000 0.000000 
-32.313663 56.067078 274.843048 0.000000 0.000000 0.000000 -172.522806 15.618008 -179.890271 -90.897653 -2.174484 31.548456 97.527807 -4.264210 -3.857738 0.966235 -8.249767 9.634539 -6.085086 0.297987 -1.573555 0.000000 0.000000 0.000000 -172.629042 14.885627 179.384455 -100.692821 11.021348 -21.081396 103.735800 -0.061036 4.013803 -5.417956 4.259540 -6.934195 4.692387 2.812612 2.720428 0.000000 0.000000 0.000000 -172.513585 17.213735 -178.194909 18.106348 -3.096452 -7.453042 3.925690 -0.228637 -2.583188 0.902459 -0.404289 0.433693 0.000000 0.000000 0.000000 4.543546 -0.670916 -1.878415 -1.636342 -0.603493 -0.882469 -23.040911 -0.467590 8.060281 0.000000 0.000000 0.000000 4.032166 -0.549600 -2.374247 0.899508 -2.947556 -11.491000 -4.042823 0.217319 1.377884 -14.747550 -40.699885 -44.099328 0.418127 -58.127574 0.846225 0.000000 0.000000 0.000000 4.894035 -0.580644 -1.897653 -3.709142 16.311450 -4.193924 -1.009954 0.489999 0.438485 -31.438094 27.463859 31.704833 179.550797 66.746118 -179.453166 0.000000 0.000000 0.000000 
-32.323654 56.075676 274.843292 0.000000 0.000000 0.000000 -172.561314 15.732297 -179.952194 -90.943757 -2.221729 31.479546 97.529753 -4.274922 -3.810501 1.030189 -8.230109 9.621953 -6.113775 0.286221 -1.587027 0.000000 0.000000 0.000000 -172.668412 14.994039 179.325223 -100.712690 10.948626 -21.134306 103.730916 -0.078524 4.032357 -5.401564 4.205836 -6.960208 4.743216 2.805961 2.727515 0.000000 0.000000 0.000000 -172.545414 17.311272 -178.271653 18.013290 -3.081809 -7.435673 3.923547 -0.242061 -2.564954 0.942484 -0.417376 0.422493 0.000000 0.000000 0.000000 4.534178 -0.669572 -1.874085 -1.625633 -0.710135 -0.870805 -23.619590 -0.666370 8.088201 0.000000 0.000000 0.000000 4.074188 -0.570190 -2.352695 0.879294 -3.014914 -11.582590 -4.247061 0.208490 1.425504 -14.534651 -40.705557 -43.972030 0.298347 -58.027382 0.718865 0.000000 0.000000 0.000000 4.882619 -0.592446 -1.885522 -3.903569 15.808536 -4.604808 -0.918675 0.372465 0.337926 -32.665182 27.757489 31.832018 179.596013 66.299171 -179.460010 0.000000 0.000000 0.000000 
